<svg width="34" height="34" viewBox="0 0 34 34" fill="none" xmlns="http://www.w3.org/2000/svg">
<mask id="path-1-inside-1_279_3940" fill="white">
<path d="M0 17C0 7.61116 7.61116 0 17 0C26.3888 0 34 7.61116 34 17C34 26.3888 26.3888 34 17 34C7.61116 34 0 26.3888 0 17Z"/>
</mask>
<path d="M17 34V33C8.16344 33 1 25.8366 1 17H0H-1C-1 26.9411 7.05887 35 17 35V34ZM34 17H33C33 25.8366 25.8366 33 17 33V34V35C26.9411 35 35 26.9411 35 17H34ZM17 0V1C25.8366 1 33 8.16344 33 17H34H35C35 7.05887 26.9411 -1 17 -1V0ZM17 0V-1C7.05887 -1 -1 7.05887 -1 17H0H1C1 8.16344 8.16344 1 17 1V0Z" fill="#EEE6E0" mask="url(#path-1-inside-1_279_3940)"/>
<path d="M10.334 15.3337C10.334 14.5918 10.559 13.8674 10.9794 13.2561C11.3998 12.6448 11.9957 12.1755 12.6884 11.91C13.3811 11.6444 14.1381 11.5953 14.8593 11.769C15.5806 11.9428 16.2321 12.3312 16.728 12.883C16.7629 12.9204 16.8051 12.9501 16.852 12.9705C16.8989 12.9908 16.9495 13.0013 17.0007 13.0013C17.0518 13.0013 17.1024 12.9908 17.1493 12.9705C17.1962 12.9501 17.2384 12.9204 17.2733 12.883C17.7676 12.3276 18.4193 11.9359 19.1417 11.7601C19.8641 11.5842 20.623 11.6326 21.3172 11.8987C22.0115 12.1648 22.6082 12.636 23.0281 13.2496C23.4479 13.8633 23.6709 14.5902 23.6673 15.3337C23.6673 16.8604 22.6673 18.0004 21.6673 19.0004L18.006 22.5424C17.8818 22.685 17.7286 22.7996 17.5567 22.8786C17.3848 22.9575 17.198 22.9989 17.0088 23.0001C16.8197 23.0013 16.6324 22.9622 16.4595 22.8855C16.2866 22.8088 16.132 22.6961 16.006 22.555L12.334 19.0004C11.334 18.0004 10.334 16.867 10.334 15.3337Z" stroke="#6A6A6A" stroke-width="1.33333" stroke-linecap="round" stroke-linejoin="round"/>
</svg>
