<svg width="34" height="34" viewBox="0 0 34 34" fill="none" xmlns="http://www.w3.org/2000/svg">
<mask id="path-1-inside-1_279_3943" fill="white">
<path d="M0 17C0 7.61116 7.61116 0 17 0C26.3888 0 34 7.61116 34 17C34 26.3888 26.3888 34 17 34C7.61116 34 0 26.3888 0 17Z"/>
</mask>
<path d="M17 34V33C8.16344 33 1 25.8366 1 17H0H-1C-1 26.9411 7.05887 35 17 35V34ZM34 17H33C33 25.8366 25.8366 33 17 33V34V35C26.9411 35 35 26.9411 35 17H34ZM17 0V1C25.8366 1 33 8.16344 33 17H34H35C35 7.05887 26.9411 -1 17 -1V0ZM17 0V-1C7.05887 -1 -1 7.05887 -1 17H0H1C1 8.16344 8.16344 1 17 1V0Z" fill="#EEE6E0" mask="url(#path-1-inside-1_279_3943)"/>
<g clip-path="url(#clip0_279_3943)">
<path d="M10.9951 19.8951C11.0931 20.1424 11.115 20.4133 11.0578 20.6731L10.3478 22.8664C10.3249 22.9777 10.3308 23.0929 10.365 23.2012C10.3991 23.3095 10.4604 23.4073 10.5429 23.4853C10.6254 23.5633 10.7265 23.6189 10.8366 23.6469C10.9466 23.6749 11.062 23.6742 11.1718 23.6451L13.4471 22.9798C13.6923 22.9312 13.9461 22.9524 14.1798 23.0411C15.6034 23.7059 17.216 23.8466 18.7332 23.4383C20.2504 23.0299 21.5746 22.0989 22.4722 20.8094C23.3699 19.5198 23.7832 17.9547 23.6393 16.3901C23.4954 14.8256 22.8036 13.3621 21.6858 12.2579C20.5681 11.1537 19.0962 10.4798 17.53 10.355C15.9638 10.2303 14.4039 10.6627 13.1254 11.576C11.8469 12.4893 10.9321 13.8248 10.5424 15.3469C10.1526 16.8689 10.313 18.4797 10.9951 19.8951Z" stroke="#6A6A6A" stroke-width="1.33333" stroke-linecap="round" stroke-linejoin="round"/>
</g>
<defs>
<clipPath id="clip0_279_3943">
<rect width="16" height="16" fill="white" transform="translate(9 9)"/>
</clipPath>
</defs>
</svg>
