<svg width="48" height="48" viewBox="0 0 48 48" fill="none" xmlns="http://www.w3.org/2000/svg">
<circle cx="23.8408" cy="23.8408" r="23.5571" stroke="#0A0A0A" stroke-width="0.567434"/>
<g clip-path="url(#clip0_279_4881)">
<path d="M29.8437 17.0332L24.1432 17.0472C23.9214 17.0306 23.7271 17.1971 23.7094 17.4191C23.6917 17.6411 23.8572 17.8345 24.0791 17.8511C24.0998 17.8527 24.1206 17.8526 24.1413 17.851L28.8698 17.8422L17.5579 29.154C17.4002 29.3118 17.3995 29.567 17.5566 29.724C17.7136 29.8811 17.9688 29.8804 18.1266 29.7226L29.4384 18.4108L29.4268 23.1365C29.409 23.3584 29.5746 23.5519 29.7965 23.5685C30.0184 23.5851 30.2127 23.4187 30.2304 23.1966C30.232 23.1759 30.2321 23.1552 30.2305 23.1345L30.2446 17.434C30.2445 17.2124 30.0654 17.0333 29.8437 17.0332Z" fill="#0A0A0A"/>
</g>
<defs>
<clipPath id="clip0_279_4881">
<rect width="17.7796" height="17.7796" fill="white" transform="translate(14.9512 14.9512)"/>
</clipPath>
</defs>
</svg>
