<svg width="10" height="11" viewBox="0 0 10 11" fill="none" xmlns="http://www.w3.org/2000/svg">
<path d="M2.875 2.25C2.67 2.25 2.5 2.08 2.5 1.875V0.375C2.5 0.17 2.67 0 2.875 0C3.08 0 3.25 0.17 3.25 0.375V1.875C3.25 2.08 3.08 2.25 2.875 2.25ZM6.875 2.25C6.67 2.25 6.5 2.08 6.5 1.875V0.375C6.5 0.17 6.67 0 6.875 0C7.08 0 7.25 0.17 7.25 0.375V1.875C7.25 2.08 7.08 2.25 6.875 2.25ZM3.125 6.625C3.06 6.625 2.995 6.61 2.935 6.585C2.87 6.56 2.82 6.525 2.77 6.48C2.68 6.385 2.625 6.26 2.625 6.125C2.625 6.06 2.64 5.995 2.665 5.935C2.69 5.875 2.725 5.82 2.77 5.77C2.82 5.725 2.87 5.69 2.935 5.665C3.115 5.59 3.34 5.63 3.48 5.77C3.57 5.865 3.625 5.995 3.625 6.125C3.625 6.155 3.62 6.19 3.615 6.225C3.61 6.255 3.6 6.285 3.585 6.315C3.575 6.345 3.56 6.375 3.54 6.405C3.525 6.43 3.5 6.455 3.48 6.48C3.385 6.57 3.255 6.625 3.125 6.625ZM4.875 6.625C4.81 6.625 4.745 6.61 4.685 6.585C4.62 6.56 4.57 6.525 4.52 6.48C4.43 6.385 4.375 6.26 4.375 6.125C4.375 6.06 4.39 5.995 4.415 5.935C4.44 5.875 4.475 5.82 4.52 5.77C4.57 5.725 4.62 5.69 4.685 5.665C4.865 5.585 5.09 5.63 5.23 5.77C5.32 5.865 5.375 5.995 5.375 6.125C5.375 6.155 5.37 6.19 5.365 6.225C5.36 6.255 5.35 6.285 5.335 6.315C5.325 6.345 5.31 6.375 5.29 6.405C5.275 6.43 5.25 6.455 5.23 6.48C5.135 6.57 5.005 6.625 4.875 6.625ZM6.625 6.625C6.56 6.625 6.495 6.61 6.435 6.585C6.37 6.56 6.32 6.525 6.27 6.48L6.21 6.405C6.19106 6.37714 6.17593 6.34687 6.165 6.315C6.15056 6.28667 6.14044 6.25633 6.135 6.225C6.13 6.19 6.125 6.155 6.125 6.125C6.125 5.995 6.18 5.865 6.27 5.77C6.32 5.725 6.37 5.69 6.435 5.665C6.62 5.585 6.84 5.63 6.98 5.77C7.07 5.865 7.125 5.995 7.125 6.125C7.125 6.155 7.12 6.19 7.115 6.225C7.11 6.255 7.1 6.285 7.085 6.315C7.075 6.345 7.06 6.375 7.04 6.405C7.025 6.43 7 6.455 6.98 6.48C6.885 6.57 6.755 6.625 6.625 6.625ZM3.125 8.375C3.06 8.375 2.995 8.36 2.935 8.335C2.875 8.31 2.82 8.275 2.77 8.23C2.68 8.135 2.625 8.005 2.625 7.875C2.625 7.81 2.64 7.745 2.665 7.685C2.69 7.62 2.725 7.565 2.77 7.52C2.955 7.335 3.295 7.335 3.48 7.52C3.57 7.615 3.625 7.745 3.625 7.875C3.625 8.005 3.57 8.135 3.48 8.23C3.385 8.32 3.255 8.375 3.125 8.375ZM4.875 8.375C4.745 8.375 4.615 8.32 4.52 8.23C4.43 8.135 4.375 8.005 4.375 7.875C4.375 7.81 4.39 7.745 4.415 7.685C4.44 7.62 4.475 7.565 4.52 7.52C4.705 7.335 5.045 7.335 5.23 7.52C5.275 7.565 5.31 7.62 5.335 7.685C5.36 7.745 5.375 7.81 5.375 7.875C5.375 8.005 5.32 8.135 5.23 8.23C5.135 8.32 5.005 8.375 4.875 8.375ZM6.625 8.375C6.495 8.375 6.365 8.32 6.27 8.23C6.22373 8.18304 6.18795 8.1268 6.165 8.065C6.14 8.005 6.125 7.94 6.125 7.875C6.125 7.81 6.14 7.745 6.165 7.685C6.19 7.62 6.225 7.565 6.27 7.52C6.385 7.405 6.56 7.35 6.72 7.385C6.755 7.39 6.785 7.4 6.815 7.415C6.845 7.425 6.875 7.44 6.905 7.46C6.93 7.475 6.955 7.5 6.98 7.52C7.07 7.615 7.125 7.745 7.125 7.875C7.125 8.005 7.07 8.135 6.98 8.23C6.885 8.32 6.755 8.375 6.625 8.375ZM9.125 4.295H0.625C0.42 4.295 0.25 4.125 0.25 3.92C0.25 3.715 0.42 3.545 0.625 3.545H9.125C9.33 3.545 9.5 3.715 9.5 3.92C9.5 4.125 9.33 4.295 9.125 4.295Z" fill="#6A6A6A"/>
<path d="M6.875 10.75H2.875C1.05 10.75 0 9.7 0 7.875V3.625C0 1.8 1.05 0.75 2.875 0.75H6.875C8.7 0.75 9.75 1.8 9.75 3.625V7.875C9.75 9.7 8.7 10.75 6.875 10.75ZM2.875 1.5C1.445 1.5 0.75 2.195 0.75 3.625V7.875C0.75 9.305 1.445 10 2.875 10H6.875C8.305 10 9 9.305 9 7.875V3.625C9 2.195 8.305 1.5 6.875 1.5H2.875Z" fill="#6A6A6A"/>
</svg>
