<svg width="12" height="12" viewBox="0 0 12 12" fill="none" xmlns="http://www.w3.org/2000/svg">
<g clip-path="url(#clip0_279_4867)">
<path d="M6 12C9.30799 12 12 9.30799 12 6C12 2.69201 9.30803 0 6 0C2.69197 0 0 2.69201 0 6C0 9.30799 2.69201 12 6 12ZM6 0.799987C8.86799 0.799987 11.2 3.13198 11.2 6C11.2 8.86802 8.86802 11.2 6 11.2C3.13198 11.2 0.799987 8.86802 0.799987 6C0.799987 3.13198 3.13201 0.799987 6 0.799987Z" fill="#6A6A6A"/>
<path d="M7.74961 7.9119C7.82362 7.97189 7.91159 7.99991 7.9996 7.99991C8.05955 8.00003 8.11874 7.9866 8.17277 7.96063C8.22679 7.93465 8.27425 7.89681 8.31159 7.84991C8.44959 7.6779 8.42157 7.4259 8.2496 7.2879L6.3996 5.8079V2.7999C6.3996 2.57989 6.21961 2.3999 5.9996 2.3999C5.7796 2.3999 5.59961 2.57989 5.59961 2.7999V5.99991C5.59961 6.12192 5.65562 6.23591 5.74961 6.31189L7.74961 7.9119Z" fill="#6A6A6A"/>
</g>
<defs>
<clipPath id="clip0_279_4867">
<rect width="12" height="12" fill="white"/>
</clipPath>
</defs>
</svg>
