<svg width="48" height="48" viewBox="0 0 48 48" fill="none" xmlns="http://www.w3.org/2000/svg">
<rect width="48" height="48" rx="24" fill="#6B1810"/>
<path fill-rule="evenodd" clip-rule="evenodd" d="M16.125 22.6666C16.125 20.7999 16.125 19.8666 16.5065 19.1533C16.8421 18.5261 17.3775 18.0162 18.036 17.6966C18.785 17.3333 19.765 17.3333 21.725 17.3333H26.275C28.235 17.3333 29.215 17.3333 29.964 17.6966C30.6225 18.0162 31.1579 18.5261 31.4935 19.1533C31.875 19.8666 31.875 20.7999 31.875 22.6666V23.6666C31.875 25.5333 31.875 26.4666 31.4935 27.1799C31.1579 27.8071 30.6225 28.317 29.964 28.6366C29.215 28.9999 28.235 28.9999 26.275 28.9999H19.9873C19.7552 29 19.5327 29.0878 19.3686 29.2441L17.6186 30.9108C17.0674 31.4358 16.125 31.0641 16.125 30.3216V24.8333V22.6666ZM21.375 20.6666C21.1429 20.6666 20.9204 20.7544 20.7563 20.9107C20.5922 21.0669 20.5 21.2789 20.5 21.4999C20.5 21.7209 20.5922 21.9329 20.7563 22.0892C20.9204 22.2455 21.1429 22.3333 21.375 22.3333H26.625C26.8571 22.3333 27.0796 22.2455 27.2437 22.0892C27.4078 21.9329 27.5 21.7209 27.5 21.4999C27.5 21.2789 27.4078 21.0669 27.2437 20.9107C27.0796 20.7544 26.8571 20.6666 26.625 20.6666H21.375ZM21.375 23.9999C21.1429 23.9999 20.9204 24.0877 20.7563 24.244C20.5922 24.4003 20.5 24.6122 20.5 24.8333C20.5 25.0543 20.5922 25.2662 20.7563 25.4225C20.9204 25.5788 21.1429 25.6666 21.375 25.6666H24C24.2321 25.6666 24.4546 25.5788 24.6187 25.4225C24.7828 25.2662 24.875 25.0543 24.875 24.8333C24.875 24.6122 24.7828 24.4003 24.6187 24.244C24.4546 24.0877 24.2321 23.9999 24 23.9999H21.375Z" fill="#FDF3EC"/>
</svg>
