<svg width="48" height="48" viewBox="0 0 48 48" fill="none" xmlns="http://www.w3.org/2000/svg">
<rect width="48" height="48" rx="24" fill="#6B1810"/>
<path d="M30.7161 21.6091L29.414 22.1273C29.2478 22.1939 29.0701 22.2282 28.8907 22.2281C28.6995 22.2274 28.5104 22.188 28.3352 22.1125C28.16 22.037 28.0024 21.9269 27.8721 21.789C27.7418 21.6511 27.6416 21.4884 27.5776 21.3109C27.5136 21.1333 27.4873 20.9448 27.5002 20.7568L27.5985 19.3772L26.6951 18.3188C26.5013 18.0877 26.3906 17.7998 26.3803 17.5002H17.8189C16.2681 17.5002 15.001 18.7485 15.001 20.2829V28.0195C15.001 29.5539 16.2681 30.7957 17.8189 30.7957H19.9637L19.9175 32.0894C19.9121 32.2729 19.9442 32.4555 20.0117 32.6265C20.0793 32.7975 20.181 32.9534 20.3109 33.085C20.4407 33.2165 20.5961 33.3211 20.7677 33.3924C20.9393 33.4637 21.1237 33.5004 21.31 33.5002C21.6004 33.5002 21.8907 33.4027 22.1349 33.2207L25.4082 30.7957H29.183C30.7339 30.7957 32.001 29.5539 32.001 28.0195V22.1208L30.7161 21.6091ZM23.829 26.2121H20.365C20.2074 26.2121 20.0564 26.1505 19.945 26.0408C19.8336 25.931 19.771 25.7822 19.771 25.627C19.771 25.4718 19.8336 25.323 19.945 25.2133C20.0564 25.1035 20.2074 25.0419 20.365 25.0419H23.829C23.9865 25.0419 24.1376 25.1035 24.2489 25.2133C24.3603 25.323 24.4229 25.4718 24.4229 25.627C24.4229 25.7822 24.3603 25.931 24.2489 26.0408C24.1376 26.1505 23.9865 26.2121 23.829 26.2121ZM26.8997 23.2566H20.3663C20.2087 23.2566 20.0577 23.195 19.9463 23.0852C19.8349 22.9755 19.7723 22.8267 19.7723 22.6715C19.7723 22.5163 19.8349 22.3675 19.9463 22.2577C20.0577 22.148 20.2087 22.0863 20.3663 22.0863H26.8997C27.0572 22.0863 27.2083 22.148 27.3196 22.2577C27.431 22.3675 27.4936 22.5163 27.4936 22.6715C27.4936 22.8267 27.431 22.9755 27.3196 23.0852C27.2083 23.195 27.0572 23.2566 26.8997 23.2566Z" fill="#FDF3EC"/>
<path d="M30.8586 14.7076L31.8555 16.3749L33.6806 16.8502C33.9833 16.9293 34.1023 17.3118 33.9021 17.562L32.6927 19.0675L32.8241 21.0282C32.8291 21.1029 32.8158 21.1776 32.7855 21.2454C32.7552 21.3132 32.709 21.3719 32.6511 21.4159C32.5932 21.4599 32.5255 21.4878 32.4544 21.4969C32.3834 21.5061 32.3113 21.4962 32.2448 21.4683L30.5009 20.7313L28.7569 21.4683C28.6905 21.4962 28.6183 21.5061 28.5473 21.4969C28.4762 21.4878 28.4086 21.4599 28.3507 21.4159C28.2927 21.3719 28.2465 21.3132 28.2162 21.2454C28.1859 21.1776 28.1727 21.1029 28.1776 21.0282L28.309 19.0675L27.0996 17.562C27.0536 17.5046 27.0223 17.436 27.0087 17.3625C26.9951 17.289 26.9995 17.2131 27.0217 17.142C27.0438 17.0708 27.0829 17.0067 27.1353 16.9556C27.1877 16.9046 27.2516 16.8683 27.3211 16.8502L29.1463 16.3749L30.1431 14.7076C30.181 14.6442 30.2337 14.5918 30.2963 14.5556C30.3589 14.5193 30.4293 14.5002 30.5009 14.5002C30.5724 14.5002 30.6428 14.5193 30.7054 14.5556C30.768 14.5918 30.8207 14.6442 30.8586 14.7076Z" fill="#FDF3EC"/>
</svg>
