<svg width="49" height="49" viewBox="0 0 49 49" fill="none" xmlns="http://www.w3.org/2000/svg">
<g clip-path="url(#clip0_997_99)">
<path d="M36.0624 35.2869L24.8172 24.0416L36.0624 12.7964C36.1653 12.6935 36.2231 12.554 36.2231 12.4086C36.2231 12.2631 36.1653 12.1237 36.0624 12.0208C35.9596 11.918 35.8201 11.8602 35.6747 11.8602C35.5292 11.8602 35.3898 11.918 35.2869 12.0208L24.0416 23.2661L12.7964 12.0208C12.6935 11.918 12.554 11.8602 12.4086 11.8602C12.2631 11.8602 12.1237 11.918 12.0208 12.0208C11.918 12.1237 11.8602 12.2631 11.8602 12.4086C11.8602 12.554 11.918 12.6935 12.0208 12.7964L23.2661 24.0416L12.0208 35.2869C11.918 35.3898 11.8602 35.5292 11.8602 35.6747C11.8602 35.8201 11.918 35.9596 12.0208 36.0624C12.1237 36.1653 12.2631 36.2231 12.4086 36.2231C12.554 36.2231 12.6935 36.1653 12.7964 36.0624L24.0416 24.8172L35.2869 36.0624C35.3898 36.1653 35.5292 36.2231 35.6747 36.2231C35.8201 36.2231 35.9596 36.1653 36.0624 36.0624C36.1653 35.9596 36.2231 35.8201 36.2231 35.6747C36.2231 35.5292 36.1653 35.3898 36.0624 35.2869Z" fill="#FDF3EC"/>
</g>
<defs>
<clipPath id="clip0_997_99">
<rect width="34" height="34" fill="white" transform="translate(24.0416) rotate(45)"/>
</clipPath>
</defs>
</svg>
