<svg width="56" height="56" viewBox="0 0 56 56" fill="none" xmlns="http://www.w3.org/2000/svg">
<rect width="56" height="56" rx="12" fill="#6B0606"/>
<path d="M28 22.125C28.9665 22.125 29.75 21.3415 29.75 20.375C29.75 19.4085 28.9665 18.625 28 18.625C27.0335 18.625 26.25 19.4085 26.25 20.375C26.25 21.3415 27.0335 22.125 28 22.125Z" fill="white"/>
<path d="M37 25.125C37.9665 25.125 38.75 24.3415 38.75 23.375C38.75 22.4085 37.9665 21.625 37 21.625C36.0335 21.625 35.25 22.4085 35.25 23.375C35.25 24.3415 36.0335 25.125 37 25.125Z" fill="white"/>
<path d="M19 25.125C19.9665 25.125 20.75 24.3415 20.75 23.375C20.75 22.4085 19.9665 21.625 19 21.625C18.0335 21.625 17.25 22.4085 17.25 23.375C17.25 24.3415 18.0335 25.125 19 25.125Z" fill="white"/>
<path fill-rule="evenodd" clip-rule="evenodd" d="M37.2351 24.522C37.266 24.3671 37.2473 24.2064 37.1816 24.0628C37.1159 23.9192 37.0066 23.8 36.8691 23.7222C36.7317 23.6444 36.5732 23.612 36.4163 23.6295C36.2593 23.6471 36.1119 23.7137 35.9951 23.82L33.7691 25.844C33.4972 26.0911 33.1689 26.2678 32.813 26.3588C32.4571 26.4498 32.0842 26.4522 31.7271 26.3659C31.37 26.2796 31.0395 26.1072 30.7644 25.8636C30.4893 25.6201 30.2781 25.313 30.1491 24.969L28.7021 21.112C28.6484 20.9692 28.5524 20.8462 28.427 20.7593C28.3015 20.6725 28.1526 20.626 28.0001 20.626C27.8475 20.626 27.6986 20.6725 27.5731 20.7593C27.4477 20.8462 27.3518 20.9692 27.2981 21.112L25.8511 24.969C25.7224 25.3133 25.5114 25.6208 25.2363 25.8646C24.9612 26.1084 24.6306 26.2811 24.2733 26.3674C23.9161 26.4538 23.5431 26.4512 23.187 26.36C22.831 26.2687 22.5027 26.0915 22.2311 25.844L20.0051 23.82C19.8882 23.7137 19.7408 23.6471 19.5839 23.6295C19.4269 23.612 19.2684 23.6444 19.131 23.7222C18.9936 23.8 18.8842 23.9192 18.8185 24.0628C18.7528 24.2064 18.7341 24.3671 18.7651 24.522L20.4431 32.914C20.5677 33.5375 20.9045 34.0986 21.3963 34.5017C21.888 34.9048 22.5042 35.1251 23.1401 35.125H32.8601C33.4959 35.1251 34.1121 34.9048 34.6039 34.5017C35.0956 34.0986 35.4324 33.5375 35.5571 32.914L37.2351 24.522ZM35.3171 26.464L34.0861 32.62C34.0294 32.9034 33.8763 33.1584 33.6528 33.3417C33.4292 33.5249 33.1491 33.625 32.8601 33.625H23.1401C22.851 33.625 22.5709 33.5249 22.3474 33.3417C22.1238 33.1584 21.9707 32.9034 21.9141 32.62L20.6831 26.464L21.2221 26.954C21.6752 27.3659 22.2223 27.6607 22.8156 27.8124C23.4089 27.9642 24.0303 27.9683 24.6255 27.8245C25.2208 27.6806 25.7718 27.3932 26.2303 26.9873C26.6889 26.5814 27.0411 26.0694 27.2561 25.496L28.0001 23.511L28.7441 25.496C28.9591 26.0694 29.3112 26.5814 29.7698 26.9873C30.2283 27.3932 30.7793 27.6806 31.3746 27.8245C31.9698 27.9683 32.5913 27.9642 33.1846 27.8124C33.7779 27.6607 34.325 27.3659 34.7781 26.954L35.3171 26.464ZM34.0001 36.625H22.0001C21.8011 36.625 21.6104 36.704 21.4697 36.8446C21.3291 36.9853 21.2501 37.1761 21.2501 37.375C21.2501 37.5739 21.3291 37.7647 21.4697 37.9053C21.6104 38.046 21.8011 38.125 22.0001 38.125H34.0001C34.199 38.125 34.3897 38.046 34.5304 37.9053C34.671 37.7647 34.7501 37.5739 34.7501 37.375C34.7501 37.1761 34.671 36.9853 34.5304 36.8446C34.3897 36.704 34.199 36.625 34.0001 36.625Z" fill="white"/>
</svg>
