<svg width="56" height="56" viewBox="0 0 56 56" fill="none" xmlns="http://www.w3.org/2000/svg">
<rect width="56" height="56" rx="12" fill="#6B0606"/>
<path d="M23.5469 30.1562C23.0291 30.1562 22.6094 30.576 22.6094 31.0937V39.0625C22.6094 39.5803 23.0291 40 23.5469 40C24.0647 40 24.4844 39.5803 24.4844 39.0625V31.0937C24.4844 30.576 24.0647 30.1562 23.5469 30.1562ZM19.0938 32.0312C18.576 32.0312 18.1562 32.451 18.1562 32.9687V39.0625C18.1562 39.5803 18.576 40 19.0938 40C19.6115 40 20.0312 39.5803 20.0312 39.0625V32.9687C20.0312 32.451 19.6115 32.0312 19.0938 32.0312ZM28 32.9687C27.4822 32.9687 27.0625 33.3885 27.0625 33.9062V39.0625C27.0625 39.5803 27.4822 40 28 40C28.5178 40 28.9375 39.5803 28.9375 39.0625V33.9062C28.9375 33.3885 28.5178 32.9687 28 32.9687ZM32.95 18.9257L28.4968 16.1425C28.3478 16.0494 28.1757 16 28 16C27.8243 16 27.6521 16.0494 27.5031 16.1425L23.05 18.9257C22.9152 19.01 22.804 19.1271 22.7269 19.2662C22.6498 19.4053 22.6094 19.5617 22.6094 19.7207V25.8437C22.6094 26.3615 23.0291 26.7812 23.5469 26.7812H32.4531C32.9709 26.7812 33.3906 26.3615 33.3906 25.8437V19.7207C33.3906 19.5617 33.3502 19.4053 33.2731 19.2662C33.196 19.1271 33.0848 19.01 32.95 18.9257ZM31.5156 24.9062H24.4844V20.2403L28 18.043L31.5156 20.2403V24.9062ZM32.4531 31.0937C31.9353 31.0937 31.5156 31.5135 31.5156 32.0312V39.0625C31.5156 39.5803 31.9353 40 32.4531 40C32.9709 40 33.3906 39.5803 33.3906 39.0625V32.0312C33.3906 31.5135 32.9709 31.0937 32.4531 31.0937ZM36.9062 28.2812C36.3885 28.2812 35.9688 28.701 35.9688 29.2187V39.0625C35.9688 39.5803 36.3885 40 36.9062 40C37.424 40 37.8438 39.5803 37.8438 39.0625V29.2187C37.8438 28.701 37.424 28.2812 36.9062 28.2812Z" fill="white"/>
</svg>
