<svg width="56" height="56" viewBox="0 0 56 56" fill="none" xmlns="http://www.w3.org/2000/svg">
<rect width="56" height="56" rx="12" fill="#6B0606"/>
<path fill-rule="evenodd" clip-rule="evenodd" d="M24.1897 25.9179C24.1897 25.4538 24.3741 25.0087 24.7023 24.6805C25.0304 24.3523 25.4756 24.1679 25.9397 24.1679C26.4038 24.1679 26.8489 24.3523 27.1771 24.6805C27.5053 25.0087 27.6897 25.4538 27.6897 25.9179C27.6897 26.382 27.5053 26.8272 27.1771 27.1553C26.8489 27.4835 26.4038 27.6679 25.9397 27.6679C25.4756 27.6679 25.0304 27.4835 24.7023 27.1553C24.3741 26.8272 24.1897 26.382 24.1897 25.9179ZM25.9397 25.4803C25.8237 25.4803 25.7124 25.5264 25.6303 25.6084C25.5483 25.6905 25.5022 25.8017 25.5022 25.9178C25.5022 26.0338 25.5483 26.1451 25.6303 26.2271C25.7124 26.3092 25.8237 26.3553 25.9397 26.3553C26.0557 26.3553 26.1669 26.3092 26.249 26.2272C26.331 26.1451 26.3771 26.0339 26.3771 25.9179C26.3771 25.8019 26.331 25.6907 26.249 25.6086C26.1669 25.5266 26.0557 25.4803 25.9397 25.4803Z" fill="white"/>
<path d="M31.2162 25.0163C31.0931 24.8933 30.9262 24.8242 30.7522 24.8242C30.5782 24.8242 30.4113 24.8933 30.2883 25.0163L25.0383 30.2663C24.9184 30.39 24.852 30.5559 24.8533 30.7282C24.8546 30.9004 24.9236 31.0653 25.0454 31.1871C25.1672 31.3089 25.332 31.378 25.5043 31.3794C25.6765 31.3808 25.8425 31.3144 25.9662 31.1945L31.2162 25.9445C31.4727 25.6883 31.4727 25.2725 31.2162 25.0163Z" fill="white"/>
<path fill-rule="evenodd" clip-rule="evenodd" d="M30.3147 28.5429C30.0849 28.5429 29.8573 28.5882 29.645 28.6761C29.4327 28.7641 29.2398 28.893 29.0773 29.0555C28.9148 29.218 28.7859 29.4109 28.6979 29.6232C28.61 29.8355 28.5647 30.0631 28.5647 30.2929C28.5647 30.5227 28.61 30.7503 28.6979 30.9626C28.7859 31.1749 28.9148 31.3678 29.0773 31.5303C29.2398 31.6928 29.4327 31.8218 29.645 31.9097C29.8573 31.9976 30.0849 32.0429 30.3147 32.0429C30.7788 32.0429 31.2239 31.8585 31.5521 31.5303C31.8803 31.2022 32.0647 30.757 32.0647 30.2929C32.0647 29.8288 31.8803 29.3837 31.5521 29.0555C31.2239 28.7273 30.7788 28.5429 30.3147 28.5429ZM29.8771 30.2929C29.8771 30.1769 29.9232 30.0656 30.0052 29.9835C30.0872 29.9015 30.1985 29.8554 30.3146 29.8554C30.4306 29.8554 30.5419 29.9015 30.6239 29.9835C30.706 30.0656 30.7521 30.1769 30.7521 30.2929C30.7521 30.4089 30.706 30.5202 30.6239 30.6023C30.5419 30.6843 30.4306 30.7304 30.3146 30.7304C30.1985 30.7304 30.0872 30.6843 30.0052 30.6023C29.9232 30.5202 29.8771 30.4089 29.8771 30.2929Z" fill="white"/>
<path fill-rule="evenodd" clip-rule="evenodd" d="M30.4052 17.5462C29.1766 16.0264 26.859 16.0264 25.6304 17.5462C25.4164 17.8109 25.1303 18.0078 24.8066 18.1129C24.4829 18.2181 24.1357 18.2271 23.807 18.1387C21.9195 17.631 20.0446 18.9932 19.9441 20.9454C19.9266 21.2853 19.8108 21.6127 19.6107 21.888C19.4107 22.1634 19.135 22.3747 18.8171 22.4963C16.9918 23.1952 16.2758 25.3991 17.3415 27.0376C17.5271 27.3229 17.6259 27.6558 17.6259 27.9961C17.6259 28.3363 17.5271 28.6693 17.3415 28.9545C16.2758 30.5928 16.9918 32.7969 18.8171 33.4961C19.1349 33.6177 19.4106 33.829 19.6106 34.1043C19.8107 34.3795 19.9265 34.7069 19.9441 35.0467C20.0446 36.9986 21.9195 38.3608 23.807 37.8535C24.1356 37.7651 24.4829 37.7739 24.8065 37.8791C25.1302 37.9842 25.4164 38.181 25.6304 38.4457C26.859 39.9661 29.1766 39.9661 30.4052 38.4457C30.6191 38.1811 30.9053 37.9843 31.2289 37.8792C31.5525 37.774 31.8997 37.7651 32.2283 37.8535C34.116 38.3608 35.9909 36.9986 36.0914 35.0467C36.109 34.7069 36.2247 34.3795 36.4247 34.1042C36.6248 33.8288 36.9004 33.6175 37.2182 33.4958C39.0438 32.7969 39.7597 30.5928 38.6938 28.9545C38.5082 28.6693 38.4094 28.3363 38.4094 27.9961C38.4094 27.6558 38.5082 27.3229 38.6938 27.0376C39.7597 25.3993 39.0438 23.1952 37.2182 22.496C36.9004 22.3744 36.6248 22.1631 36.4248 21.8878C36.2248 21.6126 36.109 21.2852 36.0914 20.9454C35.9907 18.9932 34.116 17.631 32.2286 18.1387C31.8999 18.2271 31.5527 18.2181 31.229 18.1129C30.9053 18.0078 30.6191 17.8109 30.4052 17.5462ZM26.651 18.3714C27.3543 17.5011 28.681 17.5011 29.3846 18.3714C29.7583 18.8337 30.2581 19.1775 30.8234 19.3613C31.3888 19.545 31.9953 19.5606 32.5693 19.4062C33.6498 19.1156 34.7231 19.8954 34.7808 21.0129C34.8114 21.6065 35.0137 22.1785 35.3631 22.6594C35.7125 23.1402 36.194 23.5093 36.7492 23.7219C37.7938 24.1223 38.204 25.384 37.5936 26.3217C37.2694 26.8199 37.0968 27.4016 37.0968 27.9961C37.0968 28.5905 37.2694 29.1722 37.5936 29.6705C38.204 30.6085 37.7938 31.8699 36.7489 32.27C36.1938 32.4825 35.7123 32.8516 35.3629 33.3325C35.0134 33.8134 34.8111 34.3854 34.7805 34.979C34.7231 36.0968 33.6498 36.8765 32.5693 36.5859C31.9953 36.4316 31.3888 36.4472 30.8234 36.6309C30.2581 36.8146 29.7583 37.1585 29.3846 37.6208C28.6812 38.4907 27.3546 38.4907 26.651 37.6208C26.2773 37.1585 25.7775 36.8146 25.2121 36.6309C24.6468 36.4472 24.0403 36.4316 23.4662 36.5859C22.3857 36.8765 21.3125 36.0965 21.2548 34.979C21.2242 34.3854 21.0219 33.8134 20.6724 33.3325C20.323 32.8516 19.8415 32.4825 19.2864 32.27C18.2414 31.8699 17.8315 30.6082 18.4419 29.6702C18.7661 29.172 18.9387 28.5903 18.9387 27.9959C18.9387 27.4015 18.7661 26.8199 18.4419 26.3217C17.8315 25.3837 18.2414 24.122 19.2867 23.7219C19.8418 23.5093 20.3232 23.1402 20.6726 22.6593C21.0219 22.1784 21.2242 21.6065 21.2548 21.0129C21.3125 19.8957 22.3857 19.1156 23.4662 19.4062C24.0403 19.5606 24.6468 19.545 25.2121 19.3613C25.7775 19.1775 26.2773 18.8337 26.651 18.3714Z" fill="white"/>
</svg>
