<svg width="56" height="56" viewBox="0 0 56 56" fill="none" xmlns="http://www.w3.org/2000/svg">
<rect width="56" height="56" rx="12" fill="#6B0606"/>
<path fill-rule="evenodd" clip-rule="evenodd" d="M28 17.1707C26.7716 17.1707 25.5936 17.6641 24.725 18.5423C23.8564 19.4205 23.3684 20.6117 23.3684 21.8537C23.3684 23.0956 23.8564 24.2868 24.725 25.165C25.5936 26.0432 26.7716 26.5366 28 26.5366C29.2284 26.5366 30.4064 26.0432 31.275 25.165C32.1436 24.2868 32.6316 23.0956 32.6316 21.8537C32.6316 20.6117 32.1436 19.4205 31.275 18.5423C30.4064 17.6641 29.2284 17.1707 28 17.1707ZM22.2105 21.8537C22.2105 20.3012 22.8205 18.8123 23.9062 17.7145C24.992 16.6167 26.4645 16 28 16C29.5355 16 31.008 16.6167 32.0938 17.7145C33.1795 18.8123 33.7895 20.3012 33.7895 21.8537C33.7895 23.4061 33.1795 24.895 32.0938 25.9928C31.008 27.0906 29.5355 27.7073 28 27.7073C26.4645 27.7073 24.992 27.0906 23.9062 25.9928C22.8205 24.895 22.2105 23.4061 22.2105 21.8537ZM37.592 33.5235C34.6384 31.9365 31.3448 31.1066 28 31.1066C24.6552 31.1066 21.3616 31.9365 18.408 33.5235C18.3325 33.5643 18.2693 33.625 18.2252 33.6992C18.1812 33.7735 18.1579 33.8584 18.1579 33.945V38.2439C18.1579 38.3992 18.2189 38.548 18.3275 38.6578C18.436 38.7676 18.5833 38.8293 18.7368 38.8293H37.2632C37.4167 38.8293 37.564 38.7676 37.6725 38.6578C37.7811 38.548 37.8421 38.3992 37.8421 38.2439V33.945C37.8421 33.7694 37.746 33.6055 37.592 33.5235ZM17.8649 32.4898C20.9858 30.813 24.4659 29.9361 28 29.9361C31.5341 29.9361 35.0142 30.813 38.1351 32.4898C38.6677 32.7754 39 33.335 39 33.945V38.2439C39 38.7096 38.817 39.1563 38.4913 39.4856C38.1656 39.815 37.7238 40 37.2632 40H18.7368C18.2762 40 17.8344 39.815 17.5087 39.4856C17.183 39.1563 17 38.7096 17 38.2439V33.945C17 33.3362 17.3323 32.7754 17.8649 32.4898Z" fill="white"/>
</svg>
