<svg width="39" height="39" viewBox="0 0 39 39" fill="none" xmlns="http://www.w3.org/2000/svg">
<path d="M38.371 18.871H20.129V0.629032C20.129 0.462203 20.0628 0.302206 19.9448 0.184239C19.8268 0.0662729 19.6668 0 19.5 0C19.3332 0 19.1732 0.0662729 19.0552 0.184239C18.9372 0.302206 18.871 0.462203 18.871 0.629032V18.871H0.629032C0.462203 18.871 0.302206 18.9372 0.184239 19.0552C0.0662729 19.1732 0 19.3332 0 19.5C0 19.6668 0.0662729 19.8268 0.184239 19.9448C0.302206 20.0628 0.462203 20.129 0.629032 20.129H18.871V38.371C18.871 38.5378 18.9372 38.6978 19.0552 38.8158C19.1732 38.9337 19.3332 39 19.5 39C19.6668 39 19.8268 38.9337 19.9448 38.8158C20.0628 38.6978 20.129 38.5378 20.129 38.371V20.129H38.371C38.5378 20.129 38.6978 20.0628 38.8158 19.9448C38.9337 19.8268 39 19.6668 39 19.5C39 19.3332 38.9337 19.1732 38.8158 19.0552C38.6978 18.9372 38.5378 18.871 38.371 18.871Z" fill="#FDF3EC"/>
</svg>
